<?xml version="1.0" encoding="UTF-8"?>
<svg id="Layer_1" xmlns="http://www.w3.org/2000/svg" version="1.1" viewBox="0 0 1053.27 317.25">
  <!-- Generator: Adobe Illustrator 29.4.0, SVG Export Plug-In . SVG Version: 2.1.0 Build 152)  -->
  <defs>
    <style>
      .st0 {
        fill: #2e55e4;
      }
    </style>
  </defs>
  <g>
    <path class="st0" d="M259.04,146.5h0v30.77l16.27,6.21v-13.36c0-10.49-6.47-19.89-16.27-23.63h0Z"/>
    <polygon class="st0" points="240.74 139.27 224.46 133.06 224.46 163.83 240.74 170.05 240.74 139.27"/>
    <polygon class="st0" points="259.04 210.97 275.31 217.19 275.31 200.33 259.04 194.12 259.04 210.97"/>
    <polygon class="st0" points="224.46 199.44 240.74 205.65 240.74 188.8 224.46 182.58 224.46 199.44"/>
    <polygon class="st0" points="240.74 108.88 224.46 102.66 224.46 119.52 240.74 125.73 240.74 108.88"/>
    <path class="st0" d="M233.6,75.76l-9.13-3.49v16.85l16.27,6.22v-9.22c0-4.6-2.84-8.71-7.14-10.36h0Z"/>
    <path class="st0" d="M144.9,127.32l26.39-10.05v-52.89l43.86-17.48h.01l43.86,17.48v52.89l26.39,10.05,2.73,1.04,2.34.9v-2.43c0-9.4-5.81-17.83-14.6-21.18h0v-42.41c0-6.22-3.79-11.81-9.57-14.12l-35.2-14.02-12.82-5.11h0c-2.01-.8-4.25-.8-6.25,0h0l-12.82,5.11-35.2,14.02c-5.77,2.31-9.57,7.9-9.57,14.12v42.41h0c-8.78,3.35-14.6,11.77-14.6,21.18v2.43l2.34-.9,2.73-1.04h-.01Z"/>
    <path class="st0" d="M307.36,271v-100c0-10.87-6.71-20.62-16.86-24.49h0v124.49h-14.6v-37.83l-7.18-2.74-9.68-3.7v44.28h-33.15v-47.15h-21.42v47.15h-33.15v-44.28l-9.68,3.7-7.18,2.74v37.83h-14.6v-124.49h0c-10.16,3.87-16.86,13.62-16.86,24.49v100h-8.57c-9.32,0-16.86,7.56-16.86,16.86h235.25c0-9.32-7.56-16.86-16.86-16.86h-8.6Z"/>
    <path class="st0" d="M171.28,146.5h0c-9.8,3.74-16.27,13.15-16.27,23.63v13.36l16.27-6.21v-30.77h0Z"/>
    <polygon class="st0" points="206.16 133.06 189.89 139.27 189.89 170.05 206.16 163.83 206.16 133.06"/>
    <polygon class="st0" points="155.01 217.19 171.28 210.97 171.28 194.12 155.01 200.33 155.01 217.19"/>
    <polygon class="st0" points="189.89 205.65 206.16 199.44 206.16 182.58 189.89 188.8 189.89 205.65"/>
    <polygon class="st0" points="206.16 102.66 189.89 108.88 189.89 125.73 206.16 119.52 206.16 102.66"/>
    <path class="st0" d="M206.16,72.27l-9.13,3.49c-4.29,1.65-7.14,5.76-7.14,10.36v9.22l16.27-6.22v-16.85h0Z"/>
  </g>
  <g>
    <path class="st0" d="M432.73,130.38c4.11,1.93,7.46,4.66,10.05,8.19,2.59,3.54,4.34,7.63,5.26,12.29h-17.85c-.98-2.41-2.5-4.3-4.57-5.65-2.07-1.35-4.46-2.03-7.16-2.03-3.74,0-6.76,1.39-9.05,4.18-2.3,2.79-3.45,6.51-3.45,11.17s1.15,8.39,3.45,11.21c2.3,2.82,5.32,4.23,9.05,4.23,2.7,0,5.09-.69,7.16-2.07s3.59-3.28,4.57-5.69h17.85c-1.38,7.13-4.64,12.81-9.79,17.03s-11.66,6.34-19.53,6.34c-6.04,0-11.31-1.31-15.82-3.92-4.51-2.62-7.99-6.28-10.43-10.99s-3.66-10.09-3.66-16.13,1.22-11.41,3.66-16.13c2.44-4.71,5.92-8.38,10.43-11,4.51-2.61,9.79-3.92,15.82-3.92,5.23,0,9.9.96,14.01,2.89h0Z"/>
    <path class="st0" d="M488.87,143.14c3.82,1.98,6.83,4.86,9.01,8.62,2.18,3.77,3.28,8.15,3.28,13.15s-1.09,9.46-3.28,13.19c-2.19,3.74-5.19,6.61-9.01,8.62s-8.15,3.02-12.98,3.02-9.17-1-13.02-3.02c-3.85-2.01-6.87-4.89-9.05-8.62-2.19-3.74-3.28-8.13-3.28-13.19s1.09-9.46,3.28-13.19c2.18-3.74,5.2-6.6,9.05-8.58s8.19-2.98,13.02-2.98,9.15.99,12.98,2.98h0ZM470.03,157.41c-1.55,1.72-2.33,4.23-2.33,7.5s.78,5.86,2.33,7.59,3.51,2.59,5.86,2.59,4.23-.88,5.78-2.63c1.55-1.75,2.33-4.27,2.33-7.55s-.78-5.78-2.33-7.5-3.48-2.59-5.78-2.59-4.31.86-5.86,2.59h0Z"/>
    <path class="st0" d="M550.83,145.9c3.16,3.71,4.74,8.75,4.74,15.13v28.11h-16.81v-25.96c0-2.82-.73-5.01-2.2-6.6-1.47-1.58-3.44-2.37-5.91-2.37s-4.54.82-6.04,2.46-2.24,3.9-2.24,6.77v25.7h-16.99v-48.38h16.99v8.11c1.38-2.59,3.39-4.66,6.04-6.21,2.64-1.55,5.75-2.33,9.31-2.33,5.57,0,9.94,1.85,13.11,5.56h0Z"/>
    <path class="st0" d="M595.67,144.82c3.79,3.11,6.18,7.22,7.16,12.33h-15.87c-.4-1.72-1.22-3.02-2.46-3.88-1.24-.86-2.75-1.29-4.53-1.29-1.27,0-2.23.27-2.89.82-.66.55-.99,1.31-.99,2.29,0,1.21.7,2.11,2.11,2.72,1.41.6,3.72,1.28,6.94,2.03,3.74.81,6.83,1.67,9.27,2.59s4.57,2.42,6.38,4.48,2.72,4.86,2.72,8.36c0,2.82-.78,5.32-2.33,7.5-1.55,2.19-3.81,3.9-6.77,5.13-2.96,1.24-6.45,1.85-10.48,1.85-6.78,0-12.19-1.46-16.21-4.4-4.03-2.93-6.47-7.13-7.33-12.59h16.3c.23,1.78.99,3.1,2.29,3.97,1.29.86,2.92,1.29,4.87,1.29,1.32,0,2.33-.29,3.02-.86s1.03-1.32,1.03-2.24c0-1.38-.73-2.38-2.2-3.02-1.47-.63-3.81-1.26-7.03-1.9-3.68-.75-6.7-1.57-9.05-2.46-2.36-.89-4.41-2.33-6.17-4.31-1.75-1.98-2.63-4.73-2.63-8.23,0-4.37,1.69-7.93,5.09-10.69,3.39-2.76,8.22-4.14,14.49-4.14s11.47,1.55,15.26,4.66h.01Z"/>
    <path class="st0" d="M637.15,174.66v14.49h-6.99c-5.92,0-10.55-1.47-13.88-4.4s-5-7.79-5-14.57v-15.26h-6.21v-14.14h6.21v-11.73h16.99v11.73h8.71v14.14h-8.71v15.61c0,1.5.33,2.56.99,3.19s1.77.95,3.32.95h4.57Z"/>
    <path class="st0" d="M666.47,142.93c2.87-1.72,5.92-2.59,9.14-2.59v18.11h-4.91c-3.79,0-6.64.73-8.54,2.2-1.9,1.47-2.85,4.01-2.85,7.63v20.87h-16.99v-48.38h16.99v9.05c1.9-2.87,4.28-5.17,7.16-6.9h0Z"/>
    <path class="st0" d="M728.3,140.77v48.38h-16.9v-8.11c-1.38,2.59-3.39,4.66-6.04,6.21-2.64,1.55-5.75,2.33-9.31,2.33-5.58,0-9.96-1.85-13.15-5.56-3.19-3.71-4.79-8.78-4.79-15.22v-28.03h16.9v25.96c0,2.76.73,4.93,2.2,6.51,1.47,1.58,3.43,2.37,5.91,2.37s4.54-.8,6.04-2.41,2.24-3.88,2.24-6.81v-25.61h16.9Z"/>
    <path class="st0" d="M772.97,145.38c4.25,3.48,6.93,8.29,8.02,14.44h-17.94c-.4-1.67-1.14-2.95-2.2-3.84s-2.43-1.34-4.1-1.34c-2.07,0-3.75.88-5.04,2.63s-1.94,4.3-1.94,7.63.65,5.95,1.94,7.67,2.98,2.59,5.04,2.59c1.67,0,3.03-.45,4.1-1.34,1.06-.89,1.8-2.17,2.2-3.84h17.94c-1.09,6.15-3.77,10.98-8.02,14.49-4.25,3.51-9.52,5.26-15.78,5.26-4.83,0-9.1-.99-12.81-2.97s-6.6-4.86-8.67-8.62-3.1-8.18-3.1-13.24,1.03-9.46,3.1-13.19c2.07-3.74,4.97-6.6,8.71-8.58,3.74-1.98,7.99-2.98,12.76-2.98,6.26,0,11.53,1.74,15.78,5.22h0Z"/>
    <path class="st0" d="M814.02,174.66v14.49h-6.99c-5.92,0-10.55-1.47-13.88-4.4s-5-7.79-5-14.57v-15.26h-6.21v-14.14h6.21v-11.73h16.99v11.73h8.71v14.14h-8.71v15.61c0,1.5.33,2.56.99,3.19s1.77.95,3.32.95h4.57Z"/>
    <path class="st0" d="M836.18,168.71v20.44h-16.99v-61.05h25.35c7.36,0,12.98,1.85,16.86,5.56,3.88,3.71,5.82,8.67,5.82,14.88,0,3.85-.86,7.3-2.59,10.35-1.72,3.05-4.3,5.45-7.72,7.2s-7.55,2.63-12.37,2.63h-8.36ZM850.06,148.53c0-4.48-2.47-6.73-7.42-6.73h-6.47v13.54h6.47c4.94,0,7.42-2.27,7.42-6.81Z"/>
    <path class="st0" d="M895.42,142.93c2.87-1.72,5.92-2.59,9.14-2.59v18.11h-4.91c-3.79,0-6.64.73-8.54,2.2-1.9,1.47-2.85,4.01-2.85,7.63v20.87h-16.99v-48.38h16.99v9.05c1.9-2.87,4.28-5.17,7.16-6.9h0Z"/>
    <path class="st0" d="M943.41,143.14c3.82,1.98,6.83,4.86,9.01,8.62,2.18,3.77,3.28,8.15,3.28,13.15s-1.09,9.46-3.28,13.19c-2.19,3.74-5.19,6.61-9.01,8.62s-8.15,3.02-12.98,3.02-9.17-1-13.02-3.02c-3.85-2.01-6.87-4.89-9.05-8.62-2.19-3.74-3.28-8.13-3.28-13.19s1.09-9.46,3.28-13.19c2.18-3.74,5.2-6.6,9.05-8.58s8.19-2.98,13.02-2.98,9.15.99,12.98,2.98h0ZM924.57,157.41c-1.55,1.72-2.33,4.23-2.33,7.5s.78,5.86,2.33,7.59,3.51,2.59,5.86,2.59,4.23-.88,5.78-2.63c1.55-1.75,2.33-4.27,2.33-7.55s-.78-5.78-2.33-7.5-3.48-2.59-5.78-2.59-4.31.86-5.86,2.59h0Z"/>
  </g>
</svg>