<?xml version="1.0" encoding="UTF-8"?>
<svg id="Layer_1" data-name="Layer 1" xmlns="http://www.w3.org/2000/svg" viewBox="0 0 1080 1080">
  <defs>
    <style>
      .cls-1 {
        fill: #fff;
      }
    </style>
  </defs>
  <g>
    <path class="cls-1" d="M594.36,411.55h0s0,44.09,0,44.09l23.32,8.9v-19.13c0-15.03-9.28-28.5-23.32-33.86Z"/>
    <polygon class="cls-1" points="568.14 401.19 544.82 392.28 544.82 436.37 568.14 445.28 568.14 401.19"/>
    <polygon class="cls-1" points="594.36 503.92 617.68 512.82 617.68 488.67 594.36 479.77 594.36 503.92"/>
    <polygon class="cls-1" points="544.82 487.39 568.14 496.29 568.14 472.14 544.82 463.24 544.82 487.39"/>
    <polygon class="cls-1" points="568.14 357.64 544.82 348.74 544.82 372.89 568.14 381.79 568.14 357.64"/>
    <path class="cls-1" d="M557.92,310.19l-13.1-5v24.15l23.32,8.9v-13.21c0-6.59-4.07-12.49-10.22-14.84Z"/>
    <path class="cls-1" d="M430.84,384.05l37.82-14.4v-75.79l62.83-25.05h.02l62.83,25.05v75.79l37.82,14.4,3.92,1.49,3.35,1.28v-3.49c0-13.47-8.32-25.55-20.91-30.34h0v-60.77c0-8.91-5.43-16.92-13.71-20.22l-50.44-20.09-18.38-7.32h0c-2.88-1.15-6.08-1.15-8.96,0h0s-18.38,7.32-18.38,7.32l-50.44,20.09c-8.28,3.3-13.71,11.31-13.71,20.22v60.77h0c-12.59,4.8-20.91,16.87-20.91,30.34v3.49s3.35-1.28,3.35-1.28l3.92-1.49Z"/>
    <path class="cls-1" d="M663.59,589.93v-143.28c0-15.58-9.61-29.54-24.17-35.09h0s0,178.37,0,178.37h-20.91v-54.21l-10.29-3.94-13.88-5.29v63.45h-47.5v-67.55h-30.7v67.55h-47.5v-63.45l-13.88,5.29-10.29,3.94v54.21h-20.91v-178.37h0c-14.55,5.55-24.17,19.52-24.17,35.09v143.28h-12.27c-13.35,0-24.17,10.82-24.17,24.17h0s337.07,0,337.07,0h0c0-13.35-10.82-24.17-24.17-24.17h-12.27Z"/>
    <path class="cls-1" d="M468.62,411.55h0c-14.04,5.36-23.32,18.83-23.32,33.86v19.13s23.32-8.9,23.32-8.9v-44.09Z"/>
    <polygon class="cls-1" points="518.59 392.28 495.28 401.19 495.28 445.28 518.59 436.37 518.59 392.28"/>
    <polygon class="cls-1" points="445.31 512.82 468.62 503.92 468.62 479.77 445.31 488.67 445.31 512.82"/>
    <polygon class="cls-1" points="495.28 496.29 518.59 487.39 518.59 463.24 495.28 472.14 495.28 496.29"/>
    <polygon class="cls-1" points="518.59 348.74 495.28 357.64 495.28 381.79 518.59 372.89 518.59 348.74"/>
    <path class="cls-1" d="M518.59,305.19l-13.1,5c-6.15,2.35-10.22,8.25-10.22,14.84v13.21l23.32-8.9v-24.15Z"/>
  </g>
  <g>
    <g>
      <path class="cls-1" d="M207.67,700.64c5.56,2.61,10.08,6.3,13.58,11.08,3.5,4.78,5.87,10.32,7.11,16.61h-24.13c-1.32-3.26-3.38-5.81-6.18-7.64-2.8-1.83-6.03-2.74-9.68-2.74-5.05,0-9.13,1.89-12.24,5.65-3.11,3.77-4.66,8.8-4.66,15.1s1.55,11.35,4.66,15.16c3.11,3.81,7.19,5.71,12.24,5.71,3.65,0,6.88-.93,9.68-2.8,2.8-1.87,4.86-4.43,6.18-7.7h24.13c-1.86,9.64-6.28,17.31-13.23,23.03-6.96,5.71-15.76,8.57-26.41,8.57-8.16,0-15.29-1.77-21.39-5.31-6.1-3.54-10.8-8.49-14.11-14.86-3.3-6.37-4.95-13.64-4.95-21.8s1.65-15.43,4.95-21.8c3.3-6.37,8-11.33,14.11-14.87,6.1-3.53,13.23-5.3,21.39-5.3,7.07,0,13.39,1.3,18.95,3.9Z"/>
      <path class="cls-1" d="M283.57,717.89c5.17,2.68,9.23,6.57,12.18,11.66,2.95,5.09,4.43,11.02,4.43,17.78s-1.48,12.79-4.43,17.84c-2.95,5.05-7.01,8.94-12.18,11.66-5.17,2.72-11.02,4.08-17.55,4.08s-12.4-1.36-17.61-4.08c-5.21-2.72-9.29-6.61-12.24-11.66-2.96-5.05-4.43-11-4.43-17.84s1.47-12.78,4.43-17.84c2.95-5.05,7.03-8.92,12.24-11.6,5.21-2.68,11.08-4.02,17.61-4.02s12.38,1.34,17.55,4.02ZM258.09,737.19c-2.1,2.33-3.15,5.71-3.15,10.14s1.05,7.93,3.15,10.26c2.1,2.33,4.74,3.5,7.93,3.5s5.71-1.18,7.81-3.56c2.1-2.37,3.15-5.77,3.15-10.2s-1.05-7.81-3.15-10.14c-2.1-2.33-4.7-3.5-7.81-3.5s-5.83,1.17-7.93,3.5Z"/>
      <path class="cls-1" d="M367.34,721.62c4.27,5.01,6.41,11.83,6.41,20.46v38.01h-22.73v-35.09c0-3.81-.99-6.78-2.97-8.92-1.98-2.14-4.65-3.21-7.99-3.21s-6.14,1.11-8.16,3.32c-2.02,2.22-3.03,5.27-3.03,9.15v34.74h-22.97v-65.41h22.97v10.96c1.86-3.5,4.59-6.3,8.16-8.39,3.57-2.1,7.77-3.15,12.59-3.15,7.54,0,13.44,2.51,17.72,7.52Z"/>
      <path class="cls-1" d="M427.96,720.17c5.13,4.2,8.35,9.76,9.68,16.67h-21.45c-.54-2.33-1.65-4.08-3.32-5.25-1.67-1.17-3.71-1.75-6.12-1.75-1.71,0-3.01.37-3.91,1.11-.89.74-1.34,1.77-1.34,3.09,0,1.63.95,2.86,2.86,3.67,1.9.82,5.03,1.73,9.38,2.74,5.05,1.09,9.23,2.26,12.53,3.5,3.3,1.24,6.18,3.27,8.63,6.06,2.45,2.8,3.67,6.57,3.67,11.31,0,3.81-1.05,7.19-3.15,10.14-2.1,2.95-5.15,5.27-9.15,6.94-4,1.67-8.73,2.51-14.17,2.51-9.17,0-16.48-1.98-21.92-5.95-5.44-3.96-8.74-9.64-9.91-17.02h22.04c.31,2.41,1.34,4.2,3.09,5.36,1.75,1.17,3.94,1.75,6.59,1.75,1.79,0,3.15-.39,4.08-1.17.93-.77,1.4-1.79,1.4-3.03,0-1.87-.99-3.22-2.97-4.08-1.98-.85-5.15-1.71-9.5-2.57-4.97-1.01-9.06-2.12-12.24-3.32-3.19-1.2-5.97-3.15-8.34-5.83-2.37-2.68-3.56-6.39-3.56-11.13,0-5.91,2.29-10.73,6.88-14.46,4.59-3.73,11.11-5.6,19.59-5.6s15.51,2.1,20.64,6.3Z"/>
      <path class="cls-1" d="M484.04,760.51v19.59h-9.44c-8.01,0-14.26-1.98-18.77-5.95-4.51-3.96-6.76-10.53-6.76-19.7v-20.64h-8.4v-19.12h8.4v-15.86h22.97v15.86h11.78v19.12h-11.78v21.1c0,2.02.45,3.46,1.34,4.31.89.86,2.39,1.28,4.49,1.28h6.18Z"/>
      <path class="cls-1" d="M523.68,717.6c3.89-2.33,8-3.5,12.36-3.5v24.48h-6.64c-5.13,0-8.98.99-11.54,2.97-2.56,1.98-3.85,5.42-3.85,10.32v28.21h-22.97v-65.41h22.97v12.24c2.56-3.89,5.79-6.99,9.68-9.33Z"/>
      <path class="cls-1" d="M607.28,714.69v65.41h-22.85v-10.96c-1.86,3.5-4.59,6.3-8.16,8.39-3.58,2.1-7.77,3.15-12.59,3.15-7.54,0-13.47-2.51-17.78-7.52-4.31-5.01-6.47-11.87-6.47-20.58v-37.89h22.85v35.09c0,3.73.99,6.67,2.97,8.8,1.98,2.14,4.64,3.21,7.99,3.21s6.14-1.09,8.16-3.26c2.02-2.18,3.03-5.25,3.03-9.21v-34.63h22.85Z"/>
      <path class="cls-1" d="M667.67,720.93c5.75,4.7,9.37,11.21,10.84,19.53h-24.25c-.54-2.25-1.54-3.98-2.97-5.19-1.44-1.2-3.28-1.81-5.54-1.81-2.8,0-5.07,1.19-6.82,3.56-1.75,2.37-2.62,5.81-2.62,10.32s.87,8.05,2.62,10.38c1.75,2.33,4.02,3.5,6.82,3.5,2.25,0,4.1-.6,5.54-1.81,1.44-1.2,2.43-2.93,2.97-5.19h24.25c-1.48,8.32-5.09,14.85-10.84,19.59-5.75,4.74-12.86,7.11-21.33,7.11-6.53,0-12.3-1.34-17.31-4.02-5.01-2.68-8.92-6.57-11.72-11.66-2.8-5.09-4.2-11.05-4.2-17.9s1.4-12.78,4.2-17.84c2.8-5.05,6.72-8.92,11.77-11.6,5.05-2.68,10.8-4.02,17.26-4.02,8.47,0,15.58,2.35,21.33,7.05Z"/>
      <path class="cls-1" d="M723.17,760.51v19.59h-9.44c-8.01,0-14.26-1.98-18.77-5.95-4.51-3.96-6.76-10.53-6.76-19.7v-20.64h-8.4v-19.12h8.4v-15.86h22.97v15.86h11.78v19.12h-11.78v21.1c0,2.02.45,3.46,1.34,4.31.89.86,2.39,1.28,4.49,1.28h6.18Z"/>
      <path class="cls-1" d="M753.13,752.46v27.63h-22.97v-82.54h34.28c9.95,0,17.55,2.51,22.79,7.52,5.25,5.01,7.87,11.72,7.87,20.11,0,5.21-1.17,9.87-3.5,13.99-2.33,4.12-5.81,7.36-10.44,9.74-4.62,2.37-10.2,3.56-16.73,3.56h-11.31ZM771.9,725.18c0-6.06-3.34-9.09-10.03-9.09h-8.74v18.31h8.74c6.68,0,10.03-3.07,10.03-9.21Z"/>
      <path class="cls-1" d="M833.22,717.6c3.89-2.33,8-3.5,12.36-3.5v24.48h-6.64c-5.13,0-8.98.99-11.54,2.97-2.56,1.98-3.85,5.42-3.85,10.32v28.21h-22.97v-65.41h22.97v12.24c2.56-3.89,5.79-6.99,9.68-9.33Z"/>
      <path class="cls-1" d="M898.11,717.89c5.17,2.68,9.23,6.57,12.18,11.66,2.95,5.09,4.43,11.02,4.43,17.78s-1.48,12.79-4.43,17.84c-2.95,5.05-7.01,8.94-12.18,11.66-5.17,2.72-11.02,4.08-17.55,4.08s-12.4-1.36-17.61-4.08c-5.21-2.72-9.29-6.61-12.24-11.66-2.96-5.05-4.43-11-4.43-17.84s1.47-12.78,4.43-17.84c2.95-5.05,7.03-8.92,12.24-11.6,5.21-2.68,11.08-4.02,17.61-4.02s12.38,1.34,17.55,4.02ZM872.63,737.19c-2.1,2.33-3.15,5.71-3.15,10.14s1.05,7.93,3.15,10.26,4.74,3.5,7.93,3.5,5.71-1.18,7.81-3.56c2.1-2.37,3.15-5.77,3.15-10.2s-1.05-7.81-3.15-10.14c-2.1-2.33-4.7-3.5-7.81-3.5s-5.83,1.17-7.93,3.5Z"/>
    </g>
    <g>
      <path class="cls-1" d="M258.48,837.89c1.11,1.29,1.66,2.83,1.66,4.61,0,2.29-.78,4.15-2.35,5.56-1.57,1.42-3.83,2.12-6.8,2.12h-9.92v-28.53h9.79c2.86,0,5.01.64,6.46,1.92,1.44,1.28,2.16,3,2.16,5.16,0,1.86-.5,3.35-1.5,4.47-1,1.12-2.28,1.86-3.85,2.21,1.78.35,3.22,1.17,4.33,2.47ZM243.95,834.41h6.56c2,0,3.51-.47,4.55-1.4,1.04-.93,1.56-2.21,1.56-3.82s-.51-2.85-1.54-3.77c-1.03-.92-2.6-1.38-4.73-1.38h-6.4v10.36ZM255.48,846.29c1.19-.98,1.78-2.35,1.78-4.11s-.61-3.1-1.82-4.11c-1.21-1.01-2.89-1.52-5.02-1.52h-6.48v11.21h6.56c2.13,0,3.79-.49,4.98-1.48Z"/>
      <path class="cls-1" d="M284.06,828.1v22.1h-2.83v-5.46c-.57,1.92-1.59,3.37-3.08,4.37-1.48,1-3.18,1.5-5.1,1.5-2.59,0-4.69-.82-6.29-2.45s-2.41-4.03-2.41-7.18v-12.87h2.83v12.63c0,2.43.61,4.28,1.82,5.56,1.21,1.28,2.87,1.92,4.98,1.92,2.21,0,3.97-.71,5.28-2.13s1.96-3.5,1.96-6.25v-11.74h2.83Z"/>
      <path class="cls-1" d="M290.19,820.12c.39-.35.9-.53,1.52-.53s1.12.18,1.5.53c.38.35.57.82.57,1.42s-.19,1.03-.57,1.38c-.38.35-.88.53-1.5.53s-1.13-.18-1.52-.53c-.39-.35-.59-.81-.59-1.38s.2-1.06.59-1.42ZM293.12,828.1v22.1h-2.87v-22.1h2.87Z"/>
      <path class="cls-1" d="M302.15,820.25v29.95h-2.87v-29.95h2.87Z"/>
      <path class="cls-1" d="M323.33,829.55c1.58,1.16,2.65,2.7,3.22,4.61v-13.92h2.83v29.95h-2.83v-6.07c-.57,1.92-1.64,3.45-3.22,4.61s-3.49,1.74-5.73,1.74c-2,0-3.78-.46-5.36-1.38-1.58-.92-2.81-2.23-3.68-3.95-.88-1.71-1.32-3.72-1.32-6.01s.44-4.34,1.32-6.05c.88-1.71,2.1-3.02,3.66-3.93s3.36-1.36,5.38-1.36c2.24,0,4.15.58,5.73,1.74ZM312.36,832.69c-1.5,1.58-2.25,3.73-2.25,6.46s.75,4.88,2.25,6.45c1.5,1.58,3.49,2.37,5.97,2.37,1.56,0,2.98-.36,4.23-1.09,1.26-.73,2.24-1.76,2.95-3.1s1.07-2.88,1.07-4.63-.36-3.3-1.07-4.64-1.7-2.37-2.95-3.09c-1.25-.73-2.66-1.09-4.23-1.09-2.48,0-4.47.79-5.97,2.37Z"/>
      <path class="cls-1" d="M362.55,846.61c-.61,1.15-1.54,2.08-2.81,2.79-1.27.72-2.85,1.07-4.73,1.07s-3.47-.34-4.9-1.01-2.57-1.6-3.42-2.77c-.85-1.17-1.34-2.49-1.48-3.95h2.99c.11.84.42,1.67.93,2.51.51.84,1.25,1.53,2.23,2.08.97.55,2.14.83,3.52.83,1.81,0,3.19-.49,4.15-1.46.96-.97,1.44-2.2,1.44-3.68,0-1.27-.32-2.3-.95-3.1-.63-.79-1.42-1.41-2.35-1.84-.93-.43-2.21-.9-3.82-1.42-1.78-.57-3.22-1.11-4.31-1.64-1.09-.53-2.02-1.3-2.77-2.33-.76-1.03-1.13-2.39-1.13-4.09,0-2.16.76-3.91,2.27-5.26,1.51-1.35,3.59-2.02,6.23-2.02s4.84.66,6.41,1.98,2.52,2.97,2.81,4.94h-3.03c-.24-1.21-.88-2.29-1.92-3.24-1.04-.94-2.46-1.42-4.27-1.42-1.67,0-3.01.43-4.01,1.29-1,.86-1.5,2.06-1.5,3.6,0,1.21.31,2.2.93,2.95.62.76,1.38,1.34,2.29,1.74.9.41,2.14.86,3.7,1.38,1.81.57,3.27,1.12,4.39,1.66,1.12.54,2.07,1.35,2.85,2.43.78,1.08,1.17,2.51,1.17,4.29,0,1.29-.3,2.51-.91,3.66Z"/>
      <path class="cls-1" d="M401.64,830.14c1.58,1.63,2.37,4.03,2.37,7.18v12.87h-2.83v-12.67c0-2.37-.57-4.19-1.72-5.46-1.15-1.27-2.72-1.9-4.72-1.9-2.13,0-3.83.7-5.1,2.11s-1.9,3.47-1.9,6.19v11.74h-2.79v-12.67c0-2.37-.57-4.19-1.72-5.46-1.15-1.27-2.72-1.9-4.72-1.9-2.13,0-3.83.7-5.1,2.11-1.27,1.4-1.9,3.47-1.9,6.19v11.74h-2.87v-22.1h2.87v5.26c.54-1.86,1.52-3.27,2.93-4.23,1.42-.96,3.06-1.44,4.92-1.44s3.61.51,5.02,1.54c1.4,1.03,2.37,2.54,2.91,4.53.59-1.97,1.63-3.47,3.12-4.51,1.48-1.04,3.17-1.56,5.06-1.56,2.54,0,4.59.82,6.17,2.45Z"/>
      <path class="cls-1" d="M424.99,829.55c1.58,1.16,2.66,2.7,3.26,4.61v-6.07h2.79v22.1h-2.79v-6.07c-.59,1.92-1.68,3.45-3.26,4.61-1.58,1.16-3.49,1.74-5.73,1.74-2,0-3.78-.46-5.36-1.38-1.58-.92-2.81-2.23-3.68-3.95-.88-1.71-1.32-3.72-1.32-6.01s.44-4.34,1.32-6.05c.88-1.71,2.1-3.02,3.66-3.93,1.56-.9,3.36-1.36,5.38-1.36,2.24,0,4.15.58,5.73,1.74ZM414.03,832.69c-1.5,1.58-2.25,3.73-2.25,6.46s.75,4.88,2.25,6.45c1.5,1.58,3.49,2.37,5.97,2.37,1.56,0,2.98-.36,4.23-1.09,1.26-.73,2.24-1.76,2.95-3.1s1.07-2.88,1.07-4.63-.36-3.3-1.07-4.64-1.7-2.37-2.95-3.09c-1.25-.73-2.66-1.09-4.23-1.09-2.48,0-4.47.79-5.97,2.37Z"/>
      <path class="cls-1" d="M443.19,828.99c1.43-.86,3.17-1.29,5.22-1.29v3.08h-.93c-2.13,0-3.9.57-5.3,1.72-1.4,1.15-2.11,3.02-2.11,5.61v12.1h-2.87v-22.1h2.87v4.57c.65-1.59,1.69-2.82,3.12-3.68Z"/>
      <path class="cls-1" d="M462.21,847.68v2.51h-2.63c-2.13,0-3.72-.51-4.77-1.52s-1.58-2.72-1.58-5.12v-12.99h-3.36v-2.47h3.36v-5.59h2.87v5.59h6.07v2.47h-6.07v13.03c0,1.57.28,2.64.85,3.22s1.56.87,3,.87h2.27Z"/>
      <path class="cls-1" d="M481.51,846.63c1.35-1,2.16-2.35,2.43-4.05h3c-.41,2.35-1.53,4.25-3.36,5.71-1.84,1.46-4.16,2.19-6.96,2.19-2.1,0-3.97-.45-5.6-1.36-1.63-.9-2.91-2.21-3.82-3.93-.92-1.71-1.38-3.73-1.38-6.05s.46-4.34,1.38-6.05c.92-1.71,2.19-3.02,3.82-3.93,1.63-.9,3.5-1.36,5.6-1.36s4.03.45,5.61,1.36c1.58.9,2.78,2.11,3.6,3.62.82,1.51,1.24,3.16,1.24,4.94,0,.76-.05,1.44-.16,2.06h-18.29c.03,1.86.41,3.42,1.15,4.67.74,1.26,1.71,2.18,2.89,2.77,1.19.59,2.47.89,3.85.89,2,0,3.67-.5,5.02-1.5ZM472.69,831.01c-1.19.59-2.15,1.5-2.89,2.73-.74,1.23-1.14,2.76-1.19,4.59h15.62c.11-1.81-.19-3.33-.89-4.57-.7-1.24-1.65-2.16-2.83-2.75-1.19-.59-2.48-.89-3.89-.89s-2.74.3-3.93.89Z"/>
      <path class="cls-1" d="M498.15,828.99c1.43-.86,3.17-1.29,5.22-1.29v3.08h-.93c-2.13,0-3.9.57-5.3,1.72-1.4,1.15-2.11,3.02-2.11,5.61v12.1h-2.87v-22.1h2.87v4.57c.65-1.59,1.69-2.82,3.12-3.68Z"/>
      <path class="cls-1" d="M509.11,850.68c0,1.29-.31,2.33-.93,3.09-.62.77-1.55,1.15-2.79,1.15v-1.34c.65,0,1.12-.18,1.42-.55.3-.36.45-.92.45-1.68v-.32h-1.82v-3.12h3.28c.27.92.4,1.83.4,2.75Z"/>
      <path class="cls-1" d="M551.73,822.27v27.92h-2.83v-23.39l-9.67,23.39h-2.55l-9.71-23.31v23.31h-2.87v-27.92h3.36l10.52,24.4,10.44-24.4h3.32Z"/>
      <path class="cls-1" d="M572.96,829.55c1.58,1.16,2.66,2.7,3.26,4.61v-6.07h2.79v22.1h-2.79v-6.07c-.59,1.92-1.68,3.45-3.26,4.61s-3.49,1.74-5.73,1.74c-2,0-3.78-.46-5.36-1.38-1.58-.92-2.81-2.23-3.68-3.95-.88-1.71-1.32-3.72-1.32-6.01s.44-4.34,1.32-6.05c.88-1.71,2.1-3.02,3.66-3.93,1.56-.9,3.36-1.36,5.38-1.36,2.24,0,4.15.58,5.73,1.74ZM561.99,832.69c-1.5,1.58-2.25,3.73-2.25,6.46s.75,4.88,2.25,6.45c1.5,1.58,3.49,2.37,5.97,2.37,1.56,0,2.98-.36,4.23-1.09,1.26-.73,2.24-1.76,2.95-3.1s1.07-2.88,1.07-4.63-.36-3.3-1.07-4.64-1.7-2.37-2.95-3.09c-1.25-.73-2.66-1.09-4.23-1.09-2.48,0-4.47.79-5.97,2.37Z"/>
      <path class="cls-1" d="M602.46,830.14c1.6,1.63,2.41,4.03,2.41,7.18v12.87h-2.79v-12.67c0-2.4-.61-4.24-1.82-5.53-1.21-1.28-2.87-1.92-4.98-1.92-2.21,0-3.97.71-5.28,2.12s-1.96,3.5-1.96,6.25v11.74h-2.87v-22.1h2.87v5.42c.57-1.89,1.59-3.33,3.08-4.33s3.18-1.5,5.1-1.5c2.56,0,4.65.82,6.25,2.45Z"/>
      <path class="cls-1" d="M625.89,829.55c1.58,1.16,2.66,2.7,3.26,4.61v-6.07h2.79v22.1h-2.79v-6.07c-.59,1.92-1.68,3.45-3.26,4.61-1.58,1.16-3.49,1.74-5.73,1.74-2,0-3.78-.46-5.36-1.38-1.58-.92-2.81-2.23-3.68-3.95-.88-1.71-1.32-3.72-1.32-6.01s.44-4.34,1.32-6.05c.88-1.71,2.1-3.02,3.66-3.93s3.36-1.36,5.38-1.36c2.24,0,4.15.58,5.73,1.74ZM614.92,832.69c-1.5,1.58-2.25,3.73-2.25,6.46s.75,4.88,2.25,6.45c1.5,1.58,3.49,2.37,5.97,2.37,1.56,0,2.98-.36,4.23-1.09,1.26-.73,2.24-1.76,2.95-3.1s1.07-2.88,1.07-4.63-.36-3.3-1.07-4.64-1.7-2.37-2.95-3.09c-1.25-.73-2.66-1.09-4.23-1.09-2.48,0-4.47.79-5.97,2.37Z"/>
      <path class="cls-1" d="M653.13,829.55c1.58,1.16,2.66,2.7,3.26,4.61v-6.07h2.79v22.62c0,2.05-.43,3.85-1.29,5.4-.86,1.55-2.06,2.75-3.6,3.6-1.54.85-3.29,1.27-5.26,1.27-2.89,0-5.25-.69-7.1-2.08-1.85-1.39-3.06-3.27-3.62-5.65h2.83c.49,1.62,1.38,2.9,2.69,3.85,1.31.94,2.99,1.42,5.04,1.42,1.4,0,2.68-.3,3.82-.91,1.15-.61,2.05-1.5,2.71-2.69.66-1.19.99-2.59.99-4.21v-6.6c-.59,1.92-1.68,3.45-3.26,4.61s-3.49,1.74-5.73,1.74c-2,0-3.78-.46-5.36-1.38-1.58-.92-2.81-2.23-3.68-3.95-.88-1.71-1.32-3.72-1.32-6.01s.44-4.34,1.32-6.05c.88-1.71,2.1-3.02,3.66-3.93s3.36-1.36,5.38-1.36c2.24,0,4.15.58,5.73,1.74ZM642.16,832.69c-1.5,1.58-2.25,3.73-2.25,6.46s.75,4.88,2.25,6.45c1.5,1.58,3.49,2.37,5.97,2.37,1.56,0,2.98-.36,4.23-1.09,1.26-.73,2.24-1.76,2.95-3.1s1.07-2.88,1.07-4.63-.36-3.3-1.07-4.64-1.7-2.37-2.95-3.09c-1.25-.73-2.66-1.09-4.23-1.09-2.48,0-4.47.79-5.97,2.37Z"/>
      <path class="cls-1" d="M679.98,846.63c1.35-1,2.16-2.35,2.43-4.05h3c-.41,2.35-1.53,4.25-3.36,5.71-1.84,1.46-4.16,2.19-6.96,2.19-2.1,0-3.97-.45-5.6-1.36-1.63-.9-2.91-2.21-3.82-3.93-.92-1.71-1.38-3.73-1.38-6.05s.46-4.34,1.38-6.05c.92-1.71,2.19-3.02,3.82-3.93,1.63-.9,3.5-1.36,5.6-1.36s4.03.45,5.61,1.36,2.78,2.11,3.6,3.62c.82,1.51,1.24,3.16,1.24,4.94,0,.76-.05,1.44-.16,2.06h-18.29c.03,1.86.41,3.42,1.15,4.67.74,1.26,1.71,2.18,2.89,2.77,1.19.59,2.47.89,3.85.89,2,0,3.67-.5,5.02-1.5ZM671.16,831.01c-1.19.59-2.15,1.5-2.89,2.73-.74,1.23-1.14,2.76-1.19,4.59h15.62c.11-1.81-.19-3.33-.89-4.57-.7-1.24-1.65-2.16-2.83-2.75-1.19-.59-2.48-.89-3.89-.89s-2.74.3-3.93.89Z"/>
      <path class="cls-1" d="M718.55,837.89c1.11,1.29,1.66,2.83,1.66,4.61,0,2.29-.78,4.15-2.35,5.56-1.57,1.42-3.83,2.12-6.8,2.12h-9.92v-28.53h9.79c2.86,0,5.01.64,6.46,1.92s2.16,3,2.16,5.16c0,1.86-.5,3.35-1.5,4.47-1,1.12-2.28,1.86-3.85,2.21,1.78.35,3.22,1.17,4.33,2.47ZM704.02,834.41h6.56c2,0,3.51-.47,4.55-1.4,1.04-.93,1.56-2.21,1.56-3.82s-.51-2.85-1.54-3.77c-1.03-.92-2.6-1.38-4.73-1.38h-6.4v10.36ZM715.55,846.29c1.19-.98,1.78-2.35,1.78-4.11s-.61-3.1-1.82-4.11c-1.21-1.01-2.89-1.52-5.02-1.52h-6.48v11.21h6.56c2.13,0,3.79-.49,4.98-1.48Z"/>
      <path class="cls-1" d="M739.72,846.63c1.35-1,2.16-2.35,2.43-4.05h3c-.41,2.35-1.53,4.25-3.36,5.71-1.84,1.46-4.16,2.19-6.96,2.19-2.1,0-3.97-.45-5.6-1.36-1.63-.9-2.91-2.21-3.82-3.93-.92-1.71-1.38-3.73-1.38-6.05s.46-4.34,1.38-6.05c.92-1.71,2.19-3.02,3.82-3.93,1.63-.9,3.5-1.36,5.6-1.36s4.03.45,5.61,1.36,2.78,2.11,3.6,3.62c.82,1.51,1.24,3.16,1.24,4.94,0,.76-.05,1.44-.16,2.06h-18.29c.03,1.86.41,3.42,1.15,4.67.74,1.26,1.71,2.18,2.89,2.77,1.19.59,2.47.89,3.85.89,2,0,3.67-.5,5.02-1.5ZM730.89,831.01c-1.19.59-2.15,1.5-2.89,2.73-.74,1.23-1.14,2.76-1.19,4.59h15.62c.11-1.81-.19-3.33-.89-4.57-.7-1.24-1.65-2.16-2.83-2.75-1.19-.59-2.48-.89-3.89-.89s-2.74.3-3.93.89Z"/>
      <path class="cls-1" d="M760.4,847.68v2.51h-2.63c-2.13,0-3.72-.51-4.77-1.52s-1.58-2.72-1.58-5.12v-12.99h-3.36v-2.47h3.36v-5.59h2.87v5.59h6.07v2.47h-6.07v13.03c0,1.57.28,2.64.85,3.22s1.56.87,3,.87h2.27Z"/>
      <path class="cls-1" d="M775.09,847.68v2.51h-2.63c-2.13,0-3.72-.51-4.77-1.52s-1.58-2.72-1.58-5.12v-12.99h-3.36v-2.47h3.36v-5.59h2.87v5.59h6.07v2.47h-6.07v13.03c0,1.57.28,2.64.85,3.22s1.56.87,3,.87h2.27Z"/>
      <path class="cls-1" d="M794.39,846.63c1.35-1,2.16-2.35,2.43-4.05h3c-.41,2.35-1.53,4.25-3.36,5.71-1.84,1.46-4.16,2.19-6.96,2.19-2.1,0-3.97-.45-5.6-1.36-1.63-.9-2.91-2.21-3.82-3.93-.92-1.71-1.38-3.73-1.38-6.05s.46-4.34,1.38-6.05c.92-1.71,2.19-3.02,3.82-3.93,1.63-.9,3.5-1.36,5.6-1.36s4.03.45,5.61,1.36c1.58.9,2.78,2.11,3.6,3.62.82,1.51,1.24,3.16,1.24,4.94,0,.76-.05,1.44-.16,2.06h-18.29c.03,1.86.41,3.42,1.15,4.67.74,1.26,1.71,2.18,2.89,2.77,1.19.59,2.47.89,3.85.89,2,0,3.67-.5,5.02-1.5ZM785.57,831.01c-1.19.59-2.15,1.5-2.89,2.73-.74,1.23-1.14,2.76-1.19,4.59h15.62c.11-1.81-.19-3.33-.89-4.57-.7-1.24-1.65-2.16-2.83-2.75-1.19-.59-2.48-.89-3.89-.89s-2.74.3-3.93.89Z"/>
      <path class="cls-1" d="M811.03,828.99c1.43-.86,3.17-1.29,5.22-1.29v3.08h-.93c-2.13,0-3.9.57-5.3,1.72-1.4,1.15-2.11,3.02-2.11,5.61v12.1h-2.87v-22.1h2.87v4.57c.65-1.59,1.69-2.82,3.12-3.68Z"/>
      <path class="cls-1" d="M821.91,846.55v3.64h-3.76v-3.64h3.76Z"/>
    </g>
  </g>
</svg>